<svg id="visual" viewBox="0 0 1920 2500" width="1920" height="2500" xmlns="http://www.w3.org/2000/svg" xmlns:xlink="http://www.w3.org/1999/xlink" version="1.1"><rect x="0" y="0" width="1920" height="2500" fill="#132336"></rect><g transform="translate(1133.3971100660506 1337.3988439641507)"><path d="M1346.5 -1933.9C1655.1 -1897 1753.1 -1371.2 1848.8 -916.3C1944.4 -461.4 2037.8 -77.5 1835.9 155.8C1634.1 389.2 1137.1 471.9 810.8 519C484.4 566.2 328.7 577.6 125.5 813.8C-77.7 1050 -328.3 1510.9 -667.5 1681.6C-1006.7 1852.4 -1434.4 1733 -1798.5 1470.6C-2162.6 1208.2 -2463.1 802.8 -2207.3 508.9C-1951.5 215 -1139.5 32.7 -789.4 -205.4C-439.3 -443.5 -551 -737.4 -496.5 -890.3C-441.9 -1043.3 -220.9 -1055.1 149 -1287C519 -1518.9 1038 -1970.9 1346.5 -1933.9" fill="none" stroke="#BF850B" stroke-width="9"></path></g></svg>