<svg id="visual" viewBox="0 0 1920 2500" width="1920" height="2500" xmlns="http://www.w3.org/2000/svg" xmlns:xlink="http://www.w3.org/1999/xlink" version="1.1"><rect x="0" y="0" width="1920" height="2500" fill="#132336"></rect><g transform="translate(665.275384892631 1257.0913715821189)"><path d="M716.8 -774.1C1139.2 -844 1836.7 -1000.7 1858.3 -872.4C1879.9 -744.2 1225.5 -331 924.8 -32.7C624.1 265.6 677.1 449.1 683.5 781.3C689.8 1113.5 649.6 1594.5 459.3 1722.8C269 1851.2 -71.5 1627 -302.4 1393.2C-533.3 1159.4 -654.7 916 -854.3 720.7C-1053.9 525.5 -1331.7 378.4 -1256.9 241.4C-1182.1 104.4 -754.8 -22.6 -746.1 -464.9C-737.3 -907.3 -1147.2 -1665.1 -1092.6 -1763.1C-1038 -1861.2 -519 -1299.6 -185.9 -1010.4C147.2 -721.1 294.5 -704.2 716.8 -774.1" fill="none" stroke="#BF850B" stroke-width="9"></path></g></svg>