<?xml version="1.0" encoding="UTF-8" standalone="no"?>
<svg
   xmlns:dc="http://purl.org/dc/elements/1.1/"
   xmlns:cc="http://creativecommons.org/ns#"
   xmlns:rdf="http://www.w3.org/1999/02/22-rdf-syntax-ns#"
   xmlns:svg="http://www.w3.org/2000/svg"
   xmlns="http://www.w3.org/2000/svg"
   xmlns:sodipodi="http://sodipodi.sourceforge.net/DTD/sodipodi-0.dtd"
   xmlns:inkscape="http://www.inkscape.org/namespaces/inkscape"
   id="visual"
   viewBox="0 0 900 600"
   width="900"
   height="600"
   version="1.1"
   sodipodi:docname="background_footer_dark3.svg"
   inkscape:version="0.92.5 (2060ec1f9f, 2020-04-08)">
  <metadata
     id="metadata17">
    <rdf:RDF>
      <cc:Work
         rdf:about="">
        <dc:format>image/svg+xml</dc:format>
        <dc:type
           rdf:resource="http://purl.org/dc/dcmitype/StillImage" />
        <dc:title></dc:title>
      </cc:Work>
    </rdf:RDF>
  </metadata>
  <defs
     id="defs15" />
  <sodipodi:namedview
     pagecolor="#ffffff"
     bordercolor="#666666"
     borderopacity="1"
     objecttolerance="10"
     gridtolerance="10"
     guidetolerance="10"
     inkscape:pageopacity="0"
     inkscape:pageshadow="2"
     inkscape:window-width="3424"
     inkscape:window-height="1798"
     id="namedview13"
     showgrid="false"
     inkscape:zoom="6.2933333"
     inkscape:cx="693.74444"
     inkscape:cy="83.276949"
     inkscape:window-x="0"
     inkscape:window-y="54"
     inkscape:window-maximized="1"
     inkscape:current-layer="visual" />
  <path
     d="M 0,37 13.7,28.2 C 27.3,19.3 54.7,1.7 82,4.7 c 27.3,3 54.7,26.6 81.8,37.8 27.2,11.2 54.2,9.8 81.4,3.2 C 272.3,39 299.7,27 327,18.8 354.3,10.7 381.7,6.3 409,3.3 c 27.3,-3 54.7,-4.6 82,0 27.3,4.7 54.7,15.7 82,22.5 27.3,6.9 54.7,9.5 81.8,9.9 C 682,36 709,34 736.2,33 c 27.1,-1 54.5,-1 81.8,-2 27.3,-1 54.7,-3 68.3,-4 L 900,26 V 601.57778 H 886.3 818 736.2 654.8 573 h -82 -82 -82 -81.87711 -81.4 -81.8 l -68.3,0 -13.70000039,0 z"
     id="path10"
     inkscape:connector-curvature="0"
     style="fill:#7b293f"
     sodipodi:nodetypes="ccscccsccccsccccccccccccccccc" />
</svg>
