<svg id="visual" viewBox="0 0 900 600" width="900" height="600" xmlns="http://www.w3.org/2000/svg" xmlns:xlink="http://www.w3.org/1999/xlink" version="1.1"><path d="M0 326L12.5 307.2C25 288.3 50 250.7 75 231.5C100 212.3 125 211.7 150 233C175 254.3 200 297.7 225 302.2C250 306.7 275 272.3 300 273.8C325 275.3 350 312.7 375 330.8C400 349 425 348 450 333.5C475 319 500 291 525 284C550 277 575 291 600 305.8C625 320.7 650 336.3 675 337.7C700 339 725 326 750 308C775 290 800 267 825 264.8C850 262.7 875 281.3 887.5 290.7L900 300L900 601L887.5 601C875 601 850 601 825 601C800 601 775 601 750 601C725 601 700 601 675 601C650 601 625 601 600 601C575 601 550 601 525 601C500 601 475 601 450 601C425 601 400 601 375 601C350 601 325 601 300 601C275 601 250 601 225 601C200 601 175 601 150 601C125 601 100 601 75 601C50 601 25 601 12.5 601L0 601Z" fill="#105961"></path></svg>