<?xml version="1.0" encoding="UTF-8" standalone="no"?>
<svg
   xmlns:dc="http://purl.org/dc/elements/1.1/"
   xmlns:cc="http://creativecommons.org/ns#"
   xmlns:rdf="http://www.w3.org/1999/02/22-rdf-syntax-ns#"
   xmlns:svg="http://www.w3.org/2000/svg"
   xmlns="http://www.w3.org/2000/svg"
   xmlns:sodipodi="http://sodipodi.sourceforge.net/DTD/sodipodi-0.dtd"
   xmlns:inkscape="http://www.inkscape.org/namespaces/inkscape"
   id="visual"
   viewBox="0 0 1920 542.51331"
   width="1920"
   height="542.51331"
   version="1.1"
   sodipodi:docname="wave-haikei(4).svg"
   inkscape:version="0.92.5 (2060ec1f9f, 2020-04-08)">
  <metadata
     id="metadata9">
    <rdf:RDF>
      <cc:Work
         rdf:about="">
        <dc:format>image/svg+xml</dc:format>
        <dc:type
           rdf:resource="http://purl.org/dc/dcmitype/StillImage" />
      </cc:Work>
    </rdf:RDF>
  </metadata>
  <defs
     id="defs7" />
  <sodipodi:namedview
     pagecolor="#ffffff"
     bordercolor="#666666"
     borderopacity="1"
     objecttolerance="10"
     gridtolerance="10"
     guidetolerance="10"
     inkscape:pageopacity="0"
     inkscape:pageshadow="2"
     inkscape:window-width="1095"
     inkscape:window-height="523"
     id="namedview5"
     showgrid="false"
     inkscape:zoom="0.21851852"
     inkscape:cx="960"
     inkscape:cy="541"
     inkscape:window-x="0"
     inkscape:window-y="54"
     inkscape:window-maximized="0"
     inkscape:current-layer="visual" />
  <path
     d="m 0,50.513279 64,-2.7 c 64,-2.6 192,-8 320,-19.8 128,-11.8 256,-30.2000003 384,-27.80000033 128,2.30000003 256,25.30000033 384,25.50000033 128,0.1 256,-22.5000003 384,-24.5000003 128,-2.00000003 256,16.6000003 320,26.0000003 l 64,9.3 V 542.51328 h -64 c -64,0 -192,0 -320,0 -128,0 -256,0 -384,0 -128,0 -256,0 -384,0 -128,0 -256,0 -384,0 -128,0 -256,0 -320,0 H 0 Z"
     id="path2"
     inkscape:connector-curvature="0"
     style="fill:#105961;stroke-linecap:round;stroke-linejoin:miter" />
</svg>
