<svg id="visual" viewBox="0 0 900 600" width="900" height="600" xmlns="http://www.w3.org/2000/svg" xmlns:xlink="http://www.w3.org/1999/xlink" version="1.1"><rect x="0" y="0" width="900" height="600" fill="#132336"></rect><path d="M0 425L12.5 424.5C25 424 50 423 75 432.5C100 442 125 462 150 470.2C175 478.3 200 474.7 225 460.2C250 445.7 275 420.3 300 415.5C325 410.7 350 426.3 375 425.3C400 424.3 425 406.7 450 409.7C475 412.7 500 436.3 525 456C550 475.7 575 491.3 600 490.5C625 489.7 650 472.3 675 451.7C700 431 725 407 750 408.8C775 410.7 800 438.3 825 443.7C850 449 875 432 887.5 423.5L900 415L900 601L887.5 601C875 601 850 601 825 601C800 601 775 601 750 601C725 601 700 601 675 601C650 601 625 601 600 601C575 601 550 601 525 601C500 601 475 601 450 601C425 601 400 601 375 601C350 601 325 601 300 601C275 601 250 601 225 601C200 601 175 601 150 601C125 601 100 601 75 601C50 601 25 601 12.5 601L0 601Z" fill="#bf850b"></path><path d="M0 538L12.5 535.5C25 533 50 528 75 527.8C100 527.7 125 532.3 150 516.8C175 501.3 200 465.7 225 449.3C250 433 275 436 300 441C325 446 350 453 375 470.3C400 487.7 425 515.3 450 523.5C475 531.7 500 520.3 525 507.7C550 495 575 481 600 486.8C625 492.7 650 518.3 675 532.3C700 546.3 725 548.7 750 531.8C775 515 800 479 825 474.2C850 469.3 875 495.7 887.5 508.8L900 522L900 601L887.5 601C875 601 850 601 825 601C800 601 775 601 750 601C725 601 700 601 675 601C650 601 625 601 600 601C575 601 550 601 525 601C500 601 475 601 450 601C425 601 400 601 375 601C350 601 325 601 300 601C275 601 250 601 225 601C200 601 175 601 150 601C125 601 100 601 75 601C50 601 25 601 12.5 601L0 601Z" fill="#78871f"></path><path d="M0 549L12.5 540.3C25 531.7 50 514.3 75 511.2C100 508 125 519 150 525C175 531 200 532 225 530.5C250 529 275 525 300 519.5C325 514 350 507 375 499.3C400 491.7 425 483.3 450 491.2C475 499 500 523 525 537.2C550 551.3 575 555.7 600 557.3C625 559 650 558 675 541.2C700 524.3 725 491.7 750 474.2C775 456.7 800 454.3 825 456.5C850 458.7 875 465.3 887.5 468.7L900 472L900 601L887.5 601C875 601 850 601 825 601C800 601 775 601 750 601C725 601 700 601 675 601C650 601 625 601 600 601C575 601 550 601 525 601C500 601 475 601 450 601C425 601 400 601 375 601C350 601 325 601 300 601C275 601 250 601 225 601C200 601 175 601 150 601C125 601 100 601 75 601C50 601 25 601 12.5 601L0 601Z" fill="#397d44"></path><path d="M0 538L12.5 544.2C25 550.3 50 562.7 75 555.2C100 547.7 125 520.3 150 519.7C175 519 200 545 225 555.7C250 566.3 275 561.7 300 558.2C325 554.7 350 552.3 375 544C400 535.7 425 521.3 450 520.8C475 520.3 500 533.7 525 539.5C550 545.3 575 543.7 600 541.5C625 539.3 650 536.7 675 539.8C700 543 725 552 750 555.5C775 559 800 557 825 558.3C850 559.7 875 564.3 887.5 566.7L900 569L900 601L887.5 601C875 601 850 601 825 601C800 601 775 601 750 601C725 601 700 601 675 601C650 601 625 601 600 601C575 601 550 601 525 601C500 601 475 601 450 601C425 601 400 601 375 601C350 601 325 601 300 601C275 601 250 601 225 601C200 601 175 601 150 601C125 601 100 601 75 601C50 601 25 601 12.5 601L0 601Z" fill="#006d5d"></path><path d="M0 559L12.5 563.8C25 568.7 50 578.3 75 581.2C100 584 125 580 150 573.3C175 566.7 200 557.3 225 560C250 562.7 275 577.3 300 578.2C325 579 350 566 375 563.8C400 561.7 425 570.3 450 567.3C475 564.3 500 549.7 525 548.2C550 546.7 575 558.3 600 562.8C625 567.3 650 564.7 675 560.5C700 556.3 725 550.7 750 556C775 561.3 800 577.7 825 578.3C850 579 875 564 887.5 556.5L900 549L900 601L887.5 601C875 601 850 601 825 601C800 601 775 601 750 601C725 601 700 601 675 601C650 601 625 601 600 601C575 601 550 601 525 601C500 601 475 601 450 601C425 601 400 601 375 601C350 601 325 601 300 601C275 601 250 601 225 601C200 601 175 601 150 601C125 601 100 601 75 601C50 601 25 601 12.5 601L0 601Z" fill="#105961"></path></svg>