<svg id="visual" viewBox="0 0 900 600" width="900" height="600" xmlns="http://www.w3.org/2000/svg" xmlns:xlink="http://www.w3.org/1999/xlink" version="1.1"><rect x="0" y="0" width="900" height="600" fill="#132336"></rect><path d="M0 445L13.7 420.2C27.3 395.3 54.7 345.7 82 329.8C109.3 314 136.7 332 163.8 337.7C191 343.3 218 336.7 245.2 350C272.3 363.3 299.7 396.7 327 413C354.3 429.3 381.7 428.7 409 420.8C436.3 413 463.7 398 491 406C518.3 414 545.7 445 573 440C600.3 435 627.7 394 654.8 368.7C682 343.3 709 333.7 736.2 323.2C763.3 312.7 790.7 301.3 818 310.8C845.3 320.3 872.7 350.7 886.3 365.8L900 381L900 601L886.3 601C872.7 601 845.3 601 818 601C790.7 601 763.3 601 736.2 601C709 601 682 601 654.8 601C627.7 601 600.3 601 573 601C545.7 601 518.3 601 491 601C463.7 601 436.3 601 409 601C381.7 601 354.3 601 327 601C299.7 601 272.3 601 245.2 601C218 601 191 601 163.8 601C136.7 601 109.3 601 82 601C54.7 601 27.3 601 13.7 601L0 601Z" fill="#bf850b"></path><path d="M0 509L13.7 488.5C27.3 468 54.7 427 82 416.2C109.3 405.3 136.7 424.7 163.8 439.8C191 455 218 466 245.2 451.5C272.3 437 299.7 397 327 384C354.3 371 381.7 385 409 392.7C436.3 400.3 463.7 401.7 491 417.8C518.3 434 545.7 465 573 466.2C600.3 467.3 627.7 438.7 654.8 424.2C682 409.7 709 409.3 736.2 401.7C763.3 394 790.7 379 818 377.5C845.3 376 872.7 388 886.3 394L900 400L900 601L886.3 601C872.7 601 845.3 601 818 601C790.7 601 763.3 601 736.2 601C709 601 682 601 654.8 601C627.7 601 600.3 601 573 601C545.7 601 518.3 601 491 601C463.7 601 436.3 601 409 601C381.7 601 354.3 601 327 601C299.7 601 272.3 601 245.2 601C218 601 191 601 163.8 601C136.7 601 109.3 601 82 601C54.7 601 27.3 601 13.7 601L0 601Z" fill="#b75e28"></path><path d="M0 475L13.7 481.8C27.3 488.7 54.7 502.3 82 499.7C109.3 497 136.7 478 163.8 480.5C191 483 218 507 245.2 510.3C272.3 513.7 299.7 496.3 327 495.5C354.3 494.7 381.7 510.3 409 505.5C436.3 500.7 463.7 475.3 491 457.3C518.3 439.3 545.7 428.7 573 435.3C600.3 442 627.7 466 654.8 478.3C682 490.7 709 491.3 736.2 493.8C763.3 496.3 790.7 500.7 818 489.2C845.3 477.7 872.7 450.3 886.3 436.7L900 423L900 601L886.3 601C872.7 601 845.3 601 818 601C790.7 601 763.3 601 736.2 601C709 601 682 601 654.8 601C627.7 601 600.3 601 573 601C545.7 601 518.3 601 491 601C463.7 601 436.3 601 409 601C381.7 601 354.3 601 327 601C299.7 601 272.3 601 245.2 601C218 601 191 601 163.8 601C136.7 601 109.3 601 82 601C54.7 601 27.3 601 13.7 601L0 601Z" fill="#9f3e38"></path><path d="M0 529L13.7 520.2C27.3 511.3 54.7 493.7 82 496.7C109.3 499.7 136.7 523.3 163.8 534.5C191 545.7 218 544.3 245.2 537.7C272.3 531 299.7 519 327 510.8C354.3 502.7 381.7 498.3 409 495.3C436.3 492.3 463.7 490.7 491 495.3C518.3 500 545.7 511 573 517.8C600.3 524.7 627.7 527.3 654.8 527.7C682 528 709 526 736.2 525C763.3 524 790.7 524 818 523C845.3 522 872.7 520 886.3 519L900 518L900 601L886.3 601C872.7 601 845.3 601 818 601C790.7 601 763.3 601 736.2 601C709 601 682 601 654.8 601C627.7 601 600.3 601 573 601C545.7 601 518.3 601 491 601C463.7 601 436.3 601 409 601C381.7 601 354.3 601 327 601C299.7 601 272.3 601 245.2 601C218 601 191 601 163.8 601C136.7 601 109.3 601 82 601C54.7 601 27.3 601 13.7 601L0 601Z" fill="#7b293f"></path></svg>