<?xml version="1.0" encoding="UTF-8" standalone="no"?>
<svg
   xmlns:dc="http://purl.org/dc/elements/1.1/"
   xmlns:cc="http://creativecommons.org/ns#"
   xmlns:rdf="http://www.w3.org/1999/02/22-rdf-syntax-ns#"
   xmlns:svg="http://www.w3.org/2000/svg"
   xmlns="http://www.w3.org/2000/svg"
   xmlns:sodipodi="http://sodipodi.sourceforge.net/DTD/sodipodi-0.dtd"
   xmlns:inkscape="http://www.inkscape.org/namespaces/inkscape"
   id="visual"
   viewBox="0 0 960 540"
   width="960"
   height="540"
   version="1.1"
   sodipodi:docname="background_light1.svg"
   inkscape:version="0.92.5 (2060ec1f9f, 2020-04-08)">
  <metadata
     id="metadata19">
    <rdf:RDF>
      <cc:Work
         rdf:about="">
        <dc:format>image/svg+xml</dc:format>
        <dc:type
           rdf:resource="http://purl.org/dc/dcmitype/StillImage" />
        <dc:title></dc:title>
      </cc:Work>
    </rdf:RDF>
  </metadata>
  <defs
     id="defs17" />
  <sodipodi:namedview
     pagecolor="#ffffff"
     bordercolor="#666666"
     borderopacity="1"
     objecttolerance="10"
     gridtolerance="10"
     guidetolerance="10"
     inkscape:pageopacity="0"
     inkscape:pageshadow="2"
     inkscape:window-width="3424"
     inkscape:window-height="1798"
     id="namedview15"
     showgrid="false"
     inkscape:zoom="0.6180637"
     inkscape:cx="561.68717"
     inkscape:cy="353.44532"
     inkscape:window-x="0"
     inkscape:window-y="54"
     inkscape:window-maximized="1"
     inkscape:current-layer="visual" />
  <rect
     x="0"
     y="0"
     width="960"
     height="540"
     fill="#EBE9E8"
     id="rect2" />
  <path
     d="M0 270L22.8 270.8C45.7 271.7 91.3 273.3 137 290.8C182.7 308.3 228.3 341.7 274 341.5C319.7 341.3 365.3 307.7 411.2 302.3C457 297 503 320 548.8 326.3C594.7 332.7 640.3 322.3 686 327.5C731.7 332.7 777.3 353.3 823 354.7C868.7 356 914.3 338 937.2 329L960 320L960 541L937.2 541C914.3 541 868.7 541 823 541C777.3 541 731.7 541 686 541C640.3 541 594.7 541 548.8 541C503 541 457 541 411.2 541C365.3 541 319.7 541 274 541C228.3 541 182.7 541 137 541C91.3 541 45.7 541 22.8 541L0 541Z"
     fill="#bf4163"
     id="path4" />
  <path
     d="M0 400L22.8 395.8C45.7 391.7 91.3 383.3 137 378C182.7 372.7 228.3 370.3 274 371.3C319.7 372.3 365.3 376.7 411.2 379.5C457 382.3 503 383.7 548.8 377.8C594.7 372 640.3 359 686 360.7C731.7 362.3 777.3 378.7 823 387.3C868.7 396 914.3 397 937.2 397.5L960 398L960 541L937.2 541C914.3 541 868.7 541 823 541C777.3 541 731.7 541 686 541C640.3 541 594.7 541 548.8 541C503 541 457 541 411.2 541C365.3 541 319.7 541 274 541C228.3 541 182.7 541 137 541C91.3 541 45.7 541 22.8 541L0 541Z"
     fill="#944d8e"
     id="path6" />
  <path
     d="M0 366L22.8 365.8C45.7 365.7 91.3 365.3 137 375.7C182.7 386 228.3 407 274 417.3C319.7 427.7 365.3 427.3 411.2 418C457 408.7 503 390.3 548.8 390.3C594.7 390.3 640.3 408.7 686 415.5C731.7 422.3 777.3 417.7 823 418.5C868.7 419.3 914.3 425.7 937.2 428.8L960 432L960 541L937.2 541C914.3 541 868.7 541 823 541C777.3 541 731.7 541 686 541C640.3 541 594.7 541 548.8 541C503 541 457 541 411.2 541C365.3 541 319.7 541 274 541C228.3 541 182.7 541 137 541C91.3 541 45.7 541 22.8 541L0 541Z"
     fill="#4f5b99"
     id="path8" />
  <path
     d="M0 465L22.8 463.8C45.7 462.7 91.3 460.3 137 456.2C182.7 452 228.3 446 274 441.2C319.7 436.3 365.3 432.7 411.2 437.7C457 442.7 503 456.3 548.8 458.3C594.7 460.3 640.3 450.7 686 445C731.7 439.3 777.3 437.7 823 435.7C868.7 433.7 914.3 431.3 937.2 430.2L960 429L960 541L937.2 541C914.3 541 868.7 541 823 541C777.3 541 731.7 541 686 541C640.3 541 594.7 541 548.8 541C503 541 457 541 411.2 541C365.3 541 319.7 541 274 541C228.3 541 182.7 541 137 541C91.3 541 45.7 541 22.8 541L0 541Z"
     fill="#005e84"
     id="path10" />
  <path
     d="M0 480L22.8 479C45.7 478 91.3 476 137 472.8C182.7 469.7 228.3 465.3 274 466.3C319.7 467.3 365.3 473.7 411.2 475.3C457 477 503 474 548.8 471.7C594.7 469.3 640.3 467.7 686 471.2C731.7 474.7 777.3 483.3 823 485.3C868.7 487.3 914.3 482.7 937.2 480.3L960 478L960 541L937.2 541C914.3 541 868.7 541 823 541C777.3 541 731.7 541 686 541C640.3 541 594.7 541 548.8 541C503 541 457 541 411.2 541C365.3 541 319.7 541 274 541C228.3 541 182.7 541 137 541C91.3 541 45.7 541 22.8 541L0 541Z"
     id="path12"
     fill="#105961" />
</svg>
